<svg xmlns="http://www.w3.org/2000/svg" xmlns:xlink="http://www.w3.org/1999/xlink" width="40" zoomAndPan="magnify" viewBox="0 0 30 30.000001" height="40" preserveAspectRatio="xMidYMid meet" version="1.0"><defs><clipPath id="010d3b93d1"><path d="M 0.484375 0 L 29.515625 0 L 29.515625 29.03125 L 0.484375 29.03125 Z M 0.484375 0 " clip-rule="nonzero"/></clipPath></defs><path fill="#8ba161" d="M 17.417969 10.632812 C 16.847656 10.632812 16.382812 11.097656 16.382812 11.667969 L 16.382812 18.992188 C 16.382812 19.566406 16.847656 20.03125 17.417969 20.03125 C 17.992188 20.03125 18.457031 19.566406 18.457031 18.992188 L 18.457031 11.667969 C 18.457031 11.097656 17.992188 10.632812 17.417969 10.632812 Z M 17.417969 10.632812 " fill-opacity="1" fill-rule="nonzero"/><g clip-path="url(#010d3b93d1)"><path fill="#8ba161" d="M 15 0 C 6.984375 0 0.484375 6.5 0.484375 14.515625 C 0.484375 22.53125 6.984375 29.03125 15 29.03125 C 23.015625 29.03125 29.515625 22.53125 29.515625 14.515625 C 29.515625 6.5 23.015625 0 15 0 Z M 21.21875 9.25 L 21.21875 20.722656 C 21.21875 21.867188 20.292969 22.792969 19.148438 22.792969 L 10.855469 22.792969 C 9.707031 22.792969 8.78125 21.867188 8.78125 20.722656 L 8.78125 9.25 C 8.015625 9.25 7.398438 8.632812 7.398438 7.867188 C 7.398438 7.105469 8.015625 6.484375 8.78125 6.484375 L 11.605469 6.484375 C 11.789062 6.484375 11.964844 6.414062 12.09375 6.28125 L 13.070312 5.304688 C 13.199219 5.175781 13.375 5.101562 13.558594 5.101562 L 16.441406 5.101562 C 16.625 5.101562 16.800781 5.175781 16.929688 5.304688 L 17.90625 6.28125 C 18.039062 6.414062 18.214844 6.484375 18.394531 6.484375 L 21.21875 6.484375 C 21.984375 6.484375 22.601562 7.105469 22.601562 7.867188 C 22.601562 8.632812 21.984375 9.25 21.21875 9.25 Z M 21.21875 9.25 " fill-opacity="1" fill-rule="nonzero"/></g><path fill="#8ba161" d="M 12.582031 10.632812 C 12.007812 10.632812 11.542969 11.097656 11.542969 11.667969 L 11.542969 18.992188 C 11.542969 19.566406 12.007812 20.03125 12.582031 20.03125 C 13.152344 20.03125 13.617188 19.566406 13.617188 18.992188 L 13.617188 11.667969 C 13.617188 11.097656 13.152344 10.632812 12.582031 10.632812 Z M 12.582031 10.632812 " fill-opacity="1" fill-rule="nonzero"/></svg>