<svg xmlns="http://www.w3.org/2000/svg" xmlns:xlink="http://www.w3.org/1999/xlink" width="40" zoomAndPan="magnify" viewBox="0 0 30 30.000001" height="40" preserveAspectRatio="xMidYMid meet" version="1.0"><defs><clipPath id="72a6c0e9f1"><path d="M 0.484375 0 L 29.515625 0 L 29.515625 29.03125 L 0.484375 29.03125 Z M 0.484375 0 " clip-rule="nonzero"/></clipPath></defs><g clip-path="url(#72a6c0e9f1)"><path fill="#8ba161" d="M 29.515625 14.515625 C 29.515625 22.53125 23.015625 29.03125 15 29.03125 C 6.984375 29.03125 0.484375 22.53125 0.484375 14.515625 C 0.484375 6.5 6.984375 0 15 0 C 23.015625 0 29.515625 6.5 29.515625 14.515625 Z M 9.371094 9.589844 C 8.980469 9.589844 8.664062 9.90625 8.664062 10.292969 L 8.664062 20.148438 C 8.664062 20.535156 8.980469 20.851562 9.371094 20.851562 L 19.222656 20.851562 C 19.613281 20.851562 19.925781 20.535156 19.925781 20.148438 L 19.925781 12.757812 L 21.335938 12.757812 L 21.335938 20.148438 C 21.335938 21.3125 20.390625 22.257812 19.222656 22.257812 L 9.371094 22.257812 C 8.203125 22.257812 7.257812 21.3125 7.257812 20.148438 L 7.257812 10.292969 C 7.257812 9.128906 8.203125 8.183594 9.371094 8.183594 L 16.757812 8.183594 L 16.757812 9.589844 Z M 20.132812 6.980469 C 20.40625 6.707031 20.851562 6.707031 21.128906 6.980469 L 22.535156 8.386719 C 22.8125 8.664062 22.8125 9.109375 22.535156 9.382812 L 16.90625 15.015625 C 16.828125 15.089844 16.734375 15.148438 16.628906 15.183594 L 14.519531 15.886719 C 14.265625 15.972656 13.988281 15.90625 13.796875 15.71875 C 13.609375 15.527344 13.542969 15.25 13.628906 14.996094 L 14.332031 12.886719 C 14.367188 12.78125 14.425781 12.6875 14.503906 12.609375 Z M 20.132812 6.980469 " fill-opacity="1" fill-rule="evenodd"/></g></svg>