<svg xmlns="http://www.w3.org/2000/svg" xmlns:xlink="http://www.w3.org/1999/xlink" width="40" zoomAndPan="magnify" viewBox="0 0 30 30.000001" height="40" preserveAspectRatio="xMidYMid meet" version="1.0"><defs><clipPath id="e96feb8bd8"><path d="M 0.484375 0 L 29.515625 0 L 29.515625 29.03125 L 0.484375 29.03125 Z M 0.484375 0 " clip-rule="nonzero"/></clipPath></defs><g clip-path="url(#e96feb8bd8)"><path fill="#8ba161" d="M 22.867188 22.382812 C 22.617188 22.632812 22.289062 22.757812 21.960938 22.757812 C 21.632812 22.757812 21.304688 22.632812 21.050781 22.382812 L 17.789062 19.117188 C 16.617188 19.917969 15.253906 20.320312 13.890625 20.320312 C 12.121094 20.320312 10.347656 19.644531 9 18.296875 C 6.304688 15.601562 6.304688 11.210938 9 8.515625 C 11.695312 5.820312 16.082031 5.820312 18.78125 8.515625 C 21.167969 10.902344 21.4375 14.613281 19.601562 17.304688 L 22.867188 20.570312 C 23.367188 21.070312 23.367188 21.882812 22.867188 22.382812 Z M 15 0 C 6.984375 0 0.484375 6.5 0.484375 14.515625 C 0.484375 22.53125 6.984375 29.03125 15 29.03125 C 23.015625 29.03125 29.515625 22.53125 29.515625 14.515625 C 29.515625 6.5 23.015625 0 15 0 " fill-opacity="1" fill-rule="nonzero"/></g><path fill="#8ba161" d="M 13.890625 8.625 C 12.664062 8.625 11.441406 9.089844 10.507812 10.023438 C 8.644531 11.890625 8.644531 14.925781 10.507812 16.789062 C 12.371094 18.65625 15.40625 18.65625 17.273438 16.789062 C 19.136719 14.925781 19.136719 11.890625 17.273438 10.023438 C 16.339844 9.089844 15.117188 8.625 13.890625 8.625 " fill-opacity="1" fill-rule="nonzero"/></svg>