<svg xmlns="http://www.w3.org/2000/svg" xmlns:xlink="http://www.w3.org/1999/xlink" width="60" zoomAndPan="magnify" viewBox="0 0 45 44.999999" height="60" preserveAspectRatio="xMidYMid meet" version="1.0"><rect x="-4.5" width="54" fill="#ffffff" y="-4.5" height="53.999999" fill-opacity="1"/><rect x="-4.5" width="54" fill="#ffffff" y="-4.5" height="53.999999" fill-opacity="1"/><rect x="-4.5" width="54" fill="#ffffff" y="-4.5" height="53.999999" fill-opacity="1"/><path fill="#ffffff" d="M 22.5 45 C 34.925781 45 45 34.925781 45 22.5 C 45 10.074219 34.925781 0 22.5 0 C 10.074219 0 0 10.074219 0 22.5 C 0 34.925781 10.074219 45 22.5 45 Z M 10.5 23.761719 L 22.609375 23.761719 L 20.34375 26.027344 L 22.128906 27.8125 L 26.550781 23.394531 C 27.042969 22.898438 27.042969 22.101562 26.550781 21.605469 L 22.128906 17.1875 L 20.34375 18.972656 L 22.609375 21.238281 L 10.5 21.238281 Z M 18.078125 11.132812 C 17.382812 11.132812 16.816406 11.695312 16.816406 12.394531 L 16.816406 16.183594 L 19.34375 16.183594 L 19.34375 13.65625 L 31.972656 13.65625 L 31.972656 31.34375 L 19.34375 31.34375 L 19.34375 28.816406 L 16.816406 28.816406 L 16.816406 32.605469 C 16.816406 33.304688 17.382812 33.867188 18.078125 33.867188 L 33.238281 33.867188 C 33.933594 33.867188 34.5 33.304688 34.5 32.605469 L 34.5 12.394531 C 34.5 11.695312 33.933594 11.132812 33.238281 11.132812 Z M 18.078125 11.132812 " fill-opacity="1" fill-rule="evenodd"/></svg>