<svg xmlns="http://www.w3.org/2000/svg" xmlns:xlink="http://www.w3.org/1999/xlink" width="60" zoomAndPan="magnify" viewBox="0 0 45 44.999999" height="60" preserveAspectRatio="xMidYMid meet" version="1.0"><defs><clipPath id="2451d6601f"><path d="M 15.292969 2.113281 L 44.972656 2.113281 L 44.972656 11.40625 L 15.292969 11.40625 Z M 15.292969 2.113281 " clip-rule="nonzero"/></clipPath><clipPath id="2d0fda10ff"><path d="M 0 1.269531 L 11 1.269531 L 11 12 L 0 12 Z M 0 1.269531 " clip-rule="nonzero"/></clipPath><clipPath id="a39dddacea"><path d="M 15.292969 18.164062 L 44.972656 18.164062 L 44.972656 27.457031 L 15.292969 27.457031 Z M 15.292969 18.164062 " clip-rule="nonzero"/></clipPath><clipPath id="82298f4385"><path d="M 15.292969 34.046875 L 44.972656 34.046875 L 44.972656 43.34375 L 15.292969 43.34375 Z M 15.292969 34.046875 " clip-rule="nonzero"/></clipPath><clipPath id="7587afdc10"><path d="M 0.0195312 33.878906 L 10.089844 33.878906 L 10.089844 44.015625 L 0.0195312 44.015625 Z M 0.0195312 33.878906 " clip-rule="nonzero"/></clipPath></defs><g clip-path="url(#2451d6601f)"><path fill="#ffffff" d="M 42.019531 11.324219 L 18.410156 11.324219 C 16.785156 11.324219 15.457031 9.988281 15.457031 8.355469 L 15.457031 5.152344 C 15.457031 3.519531 16.785156 2.183594 18.410156 2.183594 L 42.019531 2.183594 C 43.644531 2.183594 44.972656 3.519531 44.972656 5.152344 L 44.972656 8.355469 C 44.972656 9.988281 43.644531 11.324219 42.019531 11.324219 " fill-opacity="1" fill-rule="nonzero"/></g><g clip-path="url(#2d0fda10ff)"><path fill="#ffffff" d="M 5.015625 1.269531 C 7.773438 1.269531 10.011719 3.519531 10.011719 6.296875 C 10.011719 9.074219 7.773438 11.324219 5.015625 11.324219 C 2.257812 11.324219 0.0195312 9.074219 0.0195312 6.296875 C 0.0195312 3.519531 2.257812 1.269531 5.015625 1.269531 " fill-opacity="1" fill-rule="nonzero"/></g><g clip-path="url(#a39dddacea)"><path fill="#ffffff" d="M 42.019531 27.328125 L 18.410156 27.328125 C 16.785156 27.328125 15.457031 25.992188 15.457031 24.355469 L 15.457031 21.15625 C 15.457031 19.519531 16.785156 18.183594 18.410156 18.183594 L 42.019531 18.183594 C 43.644531 18.183594 44.972656 19.519531 44.972656 21.15625 L 44.972656 24.355469 C 44.972656 25.992188 43.644531 27.328125 42.019531 27.328125 " fill-opacity="1" fill-rule="nonzero"/></g><path fill="#ffffff" d="M 5.015625 17.5 C 7.773438 17.5 10.011719 19.75 10.011719 22.527344 C 10.011719 25.304688 7.773438 27.554688 5.015625 27.554688 C 2.257812 27.554688 0.0195312 25.304688 0.0195312 22.527344 C 0.0195312 19.75 2.257812 17.5 5.015625 17.5 " fill-opacity="1" fill-rule="nonzero"/><g clip-path="url(#82298f4385)"><path fill="#ffffff" d="M 42.019531 43.328125 L 18.410156 43.328125 C 16.785156 43.328125 15.457031 41.992188 15.457031 40.355469 L 15.457031 37.15625 C 15.457031 35.523438 16.785156 34.183594 18.410156 34.183594 L 42.019531 34.183594 C 43.644531 34.183594 44.972656 35.523438 44.972656 37.15625 L 44.972656 40.355469 C 44.972656 41.992188 43.644531 43.328125 42.019531 43.328125 " fill-opacity="1" fill-rule="nonzero"/></g><g clip-path="url(#7587afdc10)"><path fill="#ffffff" d="M 5.015625 33.957031 C 7.773438 33.957031 10.011719 36.207031 10.011719 38.984375 C 10.011719 41.761719 7.773438 44.015625 5.015625 44.015625 C 2.257812 44.015625 0.0195312 41.761719 0.0195312 38.984375 C 0.0195312 36.207031 2.257812 33.957031 5.015625 33.957031 " fill-opacity="1" fill-rule="nonzero"/></g></svg>